<?xml version="1.0" encoding="iso-8859-1"?>
<!-- Generator: Adobe Illustrator 19.0.0, SVG Export Plug-In . SVG Version: 6.00 Build 0)  -->
<svg xmlns="http://www.w3.org/2000/svg" xmlns:xlink="http://www.w3.org/1999/xlink" version="1.1" id="Layer_1" x="0px" y="0px" viewBox="0 0 511.715 511.715" style="enable-background:new 0 0 511.715 511.715;" xml:space="preserve" width="512" height="512">
<g>
	<path style="fill:#FF637B;" d="M257.157,445.477l-53.033,53.033c-17.606,17.606-46.032,17.607-63.64,0L13.205,371.231   c-17.607-17.607-17.606-46.034,0-63.64l53.033-53.033l53.033,10.607l134.28,134.28L257.157,445.477z"/>
	<path style="fill:#E63950;" d="M253.551,399.445l3.606,46.032l-53.033,53.033c-17.606,17.606-46.032,17.607-63.64,0l-63.64-63.64   l106.066-106.066L253.551,399.445z"/>
	<polygon style="fill:#979FEF;" points="511.715,190.919 469.289,233.345 429.62,236.103 283.673,90.156 278.37,42.426 320.796,0     "/>
	<polygon style="fill:#737EE6;" points="511.715,190.919 469.289,233.345 429.62,236.103 352.616,159.099 416.256,95.459  "/>
	<polygon style="fill:#E0F4FF;" points="384.436,275.772 299.583,360.624 299.583,403.051 257.157,445.477 66.238,254.558    278.37,42.426 469.289,233.345 426.862,275.772  "/>
	<polygon style="fill:#BBDCFF;" points="384.436,275.772 299.583,360.624 299.583,403.051 257.157,445.477 161.697,350.018    373.829,137.886 469.289,233.345 426.862,275.772  "/>
	
		<rect x="209.583" y="185.772" transform="matrix(0.7071 -0.7071 0.7071 0.7071 -107.2541 292.609)" style="fill:#BBDCFF;" width="180" height="180"/>
	
		<rect x="247.993" y="201.682" transform="matrix(-0.7071 -0.7071 0.7071 -0.7071 332.3305 721.0189)" style="fill:#9ABADB;" width="135" height="180"/>
</g>















</svg>
